<?xml version="1.0" encoding="UTF-8" standalone="no"?>
<svg width="343px" height="120px" viewBox="0 0 343 120" version="1.1" xmlns="http://www.w3.org/2000/svg" xmlns:xlink="http://www.w3.org/1999/xlink" xmlns:sketch="http://www.bohemiancoding.com/sketch/ns">
    <!-- Generator: Sketch 3.5.2 (25235) - http://www.bohemiancoding.com/sketch -->
    <title>logo</title>
    <desc>Created with Sketch.</desc>
    <defs></defs>
    <g id="Style-Inventory" stroke="none" stroke-width="1" fill="none" fill-rule="evenodd" sketch:type="MSPage">
        <g id="logo" sketch:type="MSArtboardGroup">
            <g id="Group" sketch:type="MSLayerGroup">
                <g id="Logo-Mark-+-Pods" transform="translate(127.698679, 19.018952)" fill="#B4D93E" sketch:type="MSShapeGroup">
                    <path d="M19.9273336,52.429138 L16.8163764,77.8871376 L0.0172076234,77.8871376 L9.24638059,2.34272736 L34.2377366,2.34272736 C38.7313639,2.34272736 42.5768142,2.88713942 45.7742028,3.97597988 C48.9715915,5.06482034 51.5985957,6.56843461 53.6552943,8.48686779 C55.711993,10.405301 57.2242487,12.6693638 58.1921069,15.2791243 C59.1599651,17.8888848 59.6438869,20.6973597 59.6438869,23.7046333 C59.6438869,27.8180306 59.0130602,31.6289151 57.751388,35.137401 C56.4897157,38.6458869 54.5626698,41.6790398 51.9701925,44.2369507 C49.3777153,46.7948616 46.09396,48.7996807 42.1188281,50.2514679 C38.1436963,51.7032552 33.4427414,52.429138 28.0158222,52.429138 L19.9273336,52.429138 Z M24.5937693,14.9421039 L21.5346615,39.7260628 L29.6749994,39.7260628 C32.0946449,39.7260628 34.1253883,39.3717629 35.7672906,38.6631524 C37.4091928,37.954542 38.7399779,36.9521325 39.7596856,35.6558938 C40.7793933,34.3596552 41.5139175,32.8128336 41.9632803,31.0153827 C42.412643,29.2179318 42.637321,27.2476786 42.637321,25.1045641 C42.637321,23.6182104 42.4385674,22.2528595 42.0410542,21.0084704 C41.643541,19.7640813 41.0299973,18.6925401 40.2004045,17.7938147 C39.3708118,16.8950892 38.325195,16.1951309 37.0635227,15.6939186 C35.8018504,15.1927063 34.3068776,14.9421039 32.5785594,14.9421039 L24.5937693,14.9421039 Z M80.4250356,66.7913903 C82.2224865,66.7913903 83.8297983,66.2469782 85.2470192,65.1581378 C86.6642401,64.0692973 87.8654033,62.582966 88.8505446,60.6990991 C89.835686,58.8152323 90.5961346,56.6203011 91.1319132,54.1142398 C91.6676919,51.6081784 91.9355772,48.9379669 91.9355772,46.103525 C91.9355772,42.1975259 91.408448,39.4063339 90.3541739,37.7298653 C89.2998998,36.0533966 87.580249,35.2151749 85.1951699,35.2151749 C83.397719,35.2151749 81.7904072,35.759587 80.3731863,36.8484274 C78.9559654,37.9372679 77.7548023,39.4149578 76.7696609,41.2815414 C75.7845195,43.148125 75.0240709,45.3430562 74.4882923,47.8664008 C73.9525137,50.3897453 73.6846284,53.0685983 73.6846284,55.9030401 C73.6846284,59.7399065 74.2117575,62.5138156 75.2660316,64.2248506 C76.3203057,65.9358856 78.0399565,66.7913903 80.4250356,66.7913903 L80.4250356,66.7913903 Z M78.9732556,78.7167261 C75.9659819,78.7167261 73.157507,78.2155214 70.5477465,77.2130968 C67.9379861,76.2106723 65.6739232,74.7502653 63.75549,72.8318321 C61.8370569,70.913399 60.3334426,68.5456386 59.2446021,65.7284799 C58.1557617,62.9113213 57.6113496,59.6707733 57.6113496,56.0067387 C57.6113496,51.2365805 58.3977226,46.8553596 59.9704921,42.8629446 C61.5432617,38.8705296 63.6604197,35.4225866 66.3220297,32.519012 C68.9836397,29.6154375 72.0686414,27.3513746 75.5771273,25.7267555 C79.0856132,24.1021364 82.7755172,23.289839 86.64695,23.289839 C89.6542236,23.289839 92.4540571,23.7910438 95.0465343,24.7934683 C97.6390116,25.7958929 99.894433,27.2562999 101.812866,29.174733 C103.731299,31.0931662 105.243555,33.4609266 106.349679,36.2780853 C107.455802,39.0952439 108.008856,42.3357919 108.008856,45.9998265 C108.008856,50.7008519 107.222483,55.047507 105.649713,59.039922 C104.076944,63.032337 101.959786,66.4889215 99.2981758,69.4097792 C96.6365658,72.330637 93.5515641,74.6119828 90.0430782,76.253885 C86.5345923,77.8957873 82.8446883,78.7167261 78.9732556,78.7167261 L78.9732556,78.7167261 Z M149.280888,77.8871376 C148.278463,77.8871376 147.440242,77.7575156 146.766197,77.4982679 C146.092153,77.2390202 145.556383,76.8847203 145.15887,76.4353575 C144.761356,75.9859948 144.48483,75.4502242 144.329281,74.8280297 C144.173732,74.2058351 144.095959,73.5318011 144.095959,72.8059075 L144.095959,68.2950196 C141.641747,71.5442578 138.928329,74.0934889 135.955621,75.9427893 C132.982914,77.7920898 129.820139,78.7167261 126.467202,78.7167261 C124.254955,78.7167261 122.232853,78.3278604 120.400835,77.5501172 C118.568818,76.772374 116.987431,75.553928 115.656626,73.8947425 C114.325821,72.2355571 113.288845,70.118399 112.545668,67.5432049 C111.802492,64.9680108 111.430909,61.8830091 111.430909,58.2881073 C111.430909,55.1771346 111.759284,52.1439817 112.416045,49.1885576 C113.072806,46.2331335 113.988801,43.4592244 115.164057,40.8667471 C116.339314,38.2742698 117.739231,35.897868 119.36385,33.7374702 C120.988469,31.5770725 122.777251,29.7277998 124.730251,28.1895966 C126.68325,26.6513934 128.74856,25.4502303 130.92624,24.5860712 C133.103921,23.7219121 135.350701,23.289839 137.666648,23.289839 C139.878895,23.289839 141.875073,23.6614219 143.65524,24.4045987 C145.435408,25.1477755 146.999513,26.1242606 148.347601,27.3340834 L151.769654,0.268755908 L167.531837,0.268755908 L157.887869,77.8871376 L149.280888,77.8871376 Z M132.896513,66.4802946 C134.002637,66.4802946 135.151951,66.0655044 136.344491,65.2359117 C137.53703,64.406319 138.694986,63.2656461 139.818393,61.8138588 C140.9418,60.3620715 141.987417,58.6597036 142.955275,56.7067041 C143.923133,54.7537045 144.752713,52.6538294 145.444041,50.4070158 L147.103218,37.3409956 C146.100793,36.5459693 144.986045,35.9756328 143.758939,35.6299692 C142.531833,35.2843056 141.365236,35.1114763 140.259112,35.1114763 C138.392528,35.1114763 136.672878,35.7336615 135.100108,36.9780506 C133.527338,38.2224397 132.170629,39.8556759 131.029939,41.8778082 C129.889249,43.8999405 128.999179,46.2072106 128.359701,48.7996879 C127.720223,51.3921652 127.400489,54.0364524 127.400489,56.7326287 C127.400489,60.1546987 127.901694,62.6347981 128.904118,64.1730013 C129.906543,65.7112045 131.237328,66.4802946 132.896513,66.4802946 L132.896513,66.4802946 Z M205.278117,35.422572 C204.794188,36.0447666 204.344832,36.4941226 203.930036,36.7706535 C203.515239,37.0471844 202.962186,37.1854478 202.270858,37.1854478 C201.579531,37.1854478 200.896856,37.0299015 200.222812,36.7188042 C199.548768,36.4077069 198.822885,36.053407 198.045142,35.6558938 C197.267398,35.2583807 196.385969,34.9040807 195.400828,34.5929835 C194.415687,34.2818862 193.283655,34.1263399 192.0047,34.1263399 C189.619621,34.1263399 187.917253,34.5843373 186.897545,35.500346 C185.877837,36.4163546 185.367991,37.6002348 185.367991,39.0520221 C185.367991,39.9853139 185.653159,40.7803284 186.223504,41.4370893 C186.793849,42.0938502 187.545657,42.6814695 188.478948,43.199965 C189.41224,43.7184605 190.47514,44.1937408 191.667679,44.6258204 C192.860219,45.0578999 194.078665,45.5418218 195.323054,46.0776004 C196.567443,46.613379 197.785889,47.2269228 198.978429,47.9182501 C200.170968,48.6095773 201.233868,49.4564405 202.16716,50.4588651 C203.100452,51.4612896 203.852259,52.6538113 204.422604,54.0364658 C204.992949,55.4191204 205.278117,57.060998 205.278117,58.962148 C205.278117,61.6583244 204.742346,64.2075555 203.670789,66.6099178 C202.599232,69.0122801 201.061052,71.1035137 199.056203,72.8836814 C197.051354,74.6638492 194.623103,76.0810488 191.771378,77.1353229 C188.919653,78.189597 185.713671,78.7167261 182.153335,78.7167261 C180.459584,78.7167261 178.78314,78.5438969 177.123955,78.1982333 C175.464769,77.8525696 173.900665,77.3859307 172.431594,76.7983025 C170.962524,76.2106744 169.623097,75.510716 168.413275,74.6984064 C167.203452,73.8860969 166.218325,73.0133093 165.457865,72.0800175 L169.398411,66.1691988 C169.88234,65.4778716 170.444035,64.9334595 171.083513,64.5359463 C171.72299,64.1384331 172.509363,63.9396795 173.442655,63.9396795 C174.306814,63.9396795 175.04998,64.1470746 175.672175,64.561871 C176.294369,64.9766673 176.968403,65.4260233 177.694297,65.9099524 C178.42019,66.3938815 179.284337,66.8432375 180.286761,67.2580339 C181.289186,67.6728302 182.602688,67.8802253 184.227307,67.8802253 C186.508687,67.8802253 188.202413,67.3703791 189.308537,66.3506713 C190.414661,65.3309636 190.967714,64.1298005 190.967714,62.7471459 C190.967714,61.6755887 190.682546,60.7941596 190.112201,60.1028323 C189.541856,59.4115051 188.790049,58.8152442 187.856757,58.314032 C186.923465,57.8128197 185.869207,57.3634637 184.69395,56.9659505 C183.518694,56.5684373 182.308889,56.1277228 181.0645,55.6437937 C179.820111,55.1598646 178.610307,54.5981696 177.43505,53.9586919 C176.259794,53.3192142 175.205536,52.5155583 174.272244,51.5477001 C173.338952,50.5798419 172.587145,49.3873203 172.0168,47.9700993 C171.446455,46.5528784 171.161287,44.8418691 171.161287,42.83702 C171.161287,40.3482418 171.619284,37.9286326 172.535293,35.5781199 C173.451301,33.2276072 174.816652,31.145015 176.631386,29.3302809 C178.44612,27.5155468 180.701542,26.0551398 183.397718,24.9490162 C186.093895,23.8428926 189.239387,23.289839 192.834288,23.289839 C196.42919,23.289839 199.635172,23.9120243 202.452331,25.1564134 C205.26949,26.4008024 207.594043,27.9216996 209.42606,29.7191505 L205.278117,35.422572 Z" id="Pods"></path>
                </g>
                <g id="pods-logo" sketch:type="MSShapeGroup">
                    <path d="M119.974313,60.0133754 C119.974313,26.8833016 93.1172593,0.0262482915 59.9871855,0.0262482915 C26.8571117,0.0262482915 5.83944193e-05,26.8833016 5.83944193e-05,60.0133754 C5.83944193e-05,93.1434492 26.8571117,120.000503 59.9871855,120.000503 C93.1172593,120.000503 119.974313,93.1434492 119.974313,60.0133754" id="Logo-Exterior" fill="#B4D93E"></path>
                    <path d="M97.2535295,92.6035652 C97.2535295,92.6035652 87.2540486,72.0485446 103.494684,55.402837 C103.486233,55.3783299 103.479191,55.3538227 103.47074,55.3290339 L103.54567,55.3493157 C103.528205,55.3673439 103.511867,55.3850905 103.494684,55.402837 C111.482888,79.4911128 97.2535295,92.6035652 97.2535295,92.6035652 M78.6418977,96.0249889 C78.6418977,96.0249889 73.6061008,74.4561609 91.7281529,63.8510435 C91.7256177,63.8259729 91.7239275,63.8014658 91.7211106,63.7763953 L91.7850546,63.8166771 C91.7658996,63.8279448 91.7475896,63.8397758 91.7281529,63.8510435 C94.2270372,88.0731226 78.6418977,96.0249889 78.6418977,96.0249889 M63.1029557,97.1171064 C63.1029557,97.1171064 60.8159033,77.3806809 77.8582323,70.5967072 C77.858514,70.5744535 77.8593591,70.553045 77.8596408,70.5310731 L77.9111903,70.5747352 C77.893162,70.5817775 77.8762605,70.5896649 77.8582323,70.5967072 C77.6427384,92.3139865 63.1029557,97.1171064 63.1029557,97.1171064 M48.4423273,94.2734318 C48.4423273,94.2734318 49.3102185,76.7981431 64.9711329,74.4246115 C64.9747949,74.4054564 64.9784569,74.3871465 64.9818372,74.3682732 L65.0215557,74.4164424 C65.0046542,74.4186959 64.9883161,74.4220762 64.9711329,74.4246115 C61.6646394,93.0965252 48.4423273,94.2734318 48.4423273,94.2734318 M34.981986,83.7821177 C34.981986,83.7821177 39.7944017,71.2651608 53.615308,73.7031998 C53.6220686,73.6879885 53.6291109,73.6736222 53.6355898,73.6584109 L53.6558715,73.7099604 C53.6423504,73.7074252 53.6291109,73.7054533 53.615308,73.7031998 C47.2420403,88.23256 34.981986,83.7821177 34.981986,83.7821177 M21.9199563,71.0398077 C21.9199563,71.0398077 30.8264746,62.443995 42.2470886,72.0285445 C42.2583563,72.0186853 42.1606093,72.0099529 42.1606093,71.999812 L42.1606093,72.0567136 C42.1606093,72.0468544 42.2583563,72.038122 42.2470886,72.0285445 C31.0628137,81.5863333 21.9199563,71.0398077 21.9199563,71.0398077 M12.1241382,54.3245224 C12.1241382,54.3245224 22.8579886,51.5036648 27.4836429,64.4397785 C27.4957556,64.4386517 27.5070233,64.43837 27.519136,64.4372433 L27.4982909,64.4783702 C27.4935021,64.4651307 27.4884317,64.4527363 27.4836429,64.4397785 C15.5295054,65.4138673 12.1241382,54.3245224 12.1241382,54.3245224 M40.8510261,67.0811986 C40.8653923,67.0823254 40.8791952,67.0845789 40.8932798,67.0862691 L40.862012,67.1302129 C40.8583501,67.1135931 40.8546881,67.0978184 40.8510261,67.0811986 C26.9430771,65.5161213 24.7802506,51.9932445 24.7802506,51.9932445 C24.7802506,51.9932445 37.576082,51.1580295 40.8510261,67.0811986 M54.1279863,67.8104976 C54.1434793,67.8121878 54.1586907,67.814723 54.1741837,67.8164132 L54.1398173,67.8659908 C54.1361554,67.8471175 54.1316483,67.829371 54.1279863,67.8104976 C38.8042564,66.0865463 36.4200205,51.1864803 36.4200205,51.1864803 C36.4200205,51.1864803 50.5198013,50.267603 54.1279863,67.8104976 M66.6142388,66.7000702 C66.6302952,66.702042 66.6457883,66.7045772 66.6618447,66.7059857 L66.6266332,66.7578169 C66.6226896,66.7383802 66.6181825,66.7195069 66.6142388,66.7000702 C50.6603653,64.9059777 48.180636,49.3952048 48.180636,49.3952048 C48.180636,49.3952048 62.8567574,48.4368907 66.6142388,66.7000702 M78.048374,61.7594849 C78.0672473,61.7617384 78.0849939,61.7642737 78.1035855,61.7662455 L78.0624586,61.8231472 C78.0579515,61.8014569 78.0528811,61.7808935 78.048374,61.7594849 C59.8922372,59.7155322 57.0696895,42.063623 57.0696895,42.063623 C57.0696895,42.063623 73.7734255,40.9726322 78.048374,61.7594849 M90.0526525,55.4310062 C90.0729343,55.4341048 90.0926527,55.4377668 90.1129345,55.4405837 L90.0664554,55.5034009 C90.0619483,55.4788937 90.0568779,55.4555133 90.0526525,55.4310062 C69.9593241,52.5219792 67.2652276,32.8371032 67.2652276,32.8371032 C67.2652276,32.8371032 85.8267183,32.2168188 90.0526525,55.4310062 M102.745385,45.5447652 C102.768765,45.5464553 102.791582,45.5489906 102.815244,45.5506807 L102.765385,45.6258923 C102.758906,45.5985682 102.751864,45.5723709 102.745385,45.5447652 C79.8655651,43.9672934 75.6427295,21.9508578 75.6427295,21.9508578 C75.6427295,21.9508578 96.5783152,19.6728196 102.745385,45.5447652 M114.385718,49.9921088 C114.038111,48.1416781 113.597546,46.3242053 113.068811,44.5447608 C87.8351779,69.5333222 67.4567778,71.8761495 52.1057238,71.4671336 C51.963188,71.4634716 51.4457209,71.3792458 51.3085372,71.0691036 C51.3085372,71.0691036 51.0843109,70.0634654 51.739525,70.0634654 C81.1106411,70.0634654 97.8800112,52.8391637 111.567396,40.1709386 C110.800913,38.2174088 109.922881,36.3196539 108.945694,34.4833077 C94.3971788,30.376529 88.7453228,18.4550677 86.7140462,12.04349 C78.9531667,7.82206283 70.0573527,5.42374234 60.6012544,5.42374234 C30.3746416,5.42374234 5.87115277,29.9272312 5.87115277,60.153844 C5.87115277,90.3801751 30.3746416,114.883946 60.6012544,114.883946 C82.9188181,114.883946 102.113833,101.524168 110.632462,82.3669002 C108.311607,75.0516565 106.462584,62.5375165 114.385718,49.9921088" id="Logo-Interior" fill-opacity="0.4" fill="#26261B"></path>
                </g>
            </g>
        </g>
    </g>
</svg>